<?xml version="1.0" encoding="iso-8859-1"?>
<!-- Generator: Adobe Illustrator 20.1.0, SVG Export Plug-In . SVG Version: 6.00 Build 0)  -->
<svg xmlns="http://www.w3.org/2000/svg" xmlns:xlink="http://www.w3.org/1999/xlink" version="1.1" id="&#1057;&#1083;&#1086;&#1081;_1" x="0px" y="0px" viewBox="0 0 64 64" style="enable-background:new 0 0 64 64;" xml:space="preserve">
<linearGradient id="SVGID_1__48139" gradientUnits="userSpaceOnUse" x1="31.9997" y1="4.7489" x2="31.9997" y2="58.7495" spreadMethod="reflect">
	<stop offset="0" style="stop-color:#1A6DFF"/>
	<stop offset="1" style="stop-color:#C822FF"/>
</linearGradient>
<path style="fill:url(#SVGID_1__48139);" d="M18.714,57.467c-2.887,0-5.789-0.975-8.168-2.972c-5.374-4.509-6.078-12.55-1.568-17.923  l20.345-24.245c5.755-6.858,16.017-7.758,22.877-2.002c6.859,5.755,7.758,16.019,2.002,22.878L37.624,52.958l-1.531-1.285  L52.67,31.918c5.046-6.015,4.258-15.015-1.756-20.062C44.898,6.812,35.9,7.599,30.853,13.612L10.509,37.857  c-3.8,4.529-3.207,11.306,1.322,15.106c4.528,3.797,11.306,3.207,15.106-1.321l20.345-24.246c2.553-3.044,2.154-7.598-0.889-10.151  c-3.044-2.555-7.598-2.155-10.152,0.888L15.897,42.379c-1.308,1.558-1.104,3.889,0.454,5.197c1.559,1.305,3.889,1.101,5.198-0.455  l11.302-13.47l1.531,1.285l-11.302,13.47c-2.016,2.401-5.609,2.717-8.015,0.702c-2.403-2.018-2.717-5.613-0.7-8.015L34.71,16.848  c3.262-3.888,9.081-4.398,12.969-1.134c3.888,3.262,4.397,9.079,1.136,12.968L28.469,52.928  C25.956,55.923,22.347,57.467,18.714,57.467z"/>
<linearGradient id="SVGID_2__48139" gradientUnits="userSpaceOnUse" x1="41.8528" y1="17.7489" x2="41.8528" y2="27.7521" spreadMethod="reflect">
	<stop offset="0" style="stop-color:#6DC7FF"/>
	<stop offset="1" style="stop-color:#E6ABFF"/>
</linearGradient>
<circle style="fill:url(#SVGID_2__48139);" cx="41.853" cy="22.656" r="4.689"/>
</svg>
