<svg xmlns="http://www.w3.org/2000/svg" enable-background="new 0 0 512 512" viewBox="0 0 512 512"><path fill="#f0f7ff" d="M458.2,127.1v339.5c0,22.3-18.1,40.4-40.4,40.4H94.3c-22.3,0-40.4-18.1-40.4-40.4V45.4C53.8,23.1,71.9,5,94.3,5H336c5.4,0,10.5,2.1,14.3,5.9l101.9,101.9C456,116.6,458.2,121.8,458.2,127.1z"/><path fill="#83cafa" d="M456.3,118.8h-91.7c-11.1,0-20.2-9.1-20.2-20.2V6.8c2.2,1,4.2,2.4,6,4.1l101.8,101.8C453.9,114.5,455.3,116.5,456.3,118.8z"/><path fill="#fff" d="M456.3,118.8h-44.5l-61.5-61.6c-3.8-3.7-9-5.9-14.3-5.9H94.3c-22.3,0-40.4,18.1-40.4,40.4V45.4C53.8,23.1,71.9,5,94.3,5H336c5.4,0,10.5,2.1,14.3,6l101.8,101.8C453.9,114.5,455.3,116.5,456.3,118.8z" opacity=".4"/><path d="M458.2,420.3v46.3c0,22.3-18.1,40.4-40.4,40.4H94.3c-22.3,0-40.4-18.1-40.4-40.4v-46.3c0,22.3,18.1,40.4,40.4,40.4h323.5C440.1,460.7,458.2,442.6,458.2,420.3z" opacity=".1"/><path fill="#f14950" d="M283.8,93.7H114.5c-2.8,0-5-2.2-5-5s2.2-5,5-5h169.3c2.8,0,5,2.2,5,5S286.5,93.7,283.8,93.7z"/><path fill="#333" d="M455.8,109.3L353.9,7.4C349.1,2.6,342.8,0,336,0H94.3c-25,0-45.4,20.4-45.4,45.4v421.2c0,25,20.4,45.4,45.4,45.4h323.5c25,0,45.4-20.4,45.4-45.4V127.1C463.2,120.4,460.5,114.1,455.8,109.3z M349.4,17.1l96.7,96.7h-81.5c-8.4,0-15.2-6.8-15.2-15.2L349.4,17.1L349.4,17.1z M417.7,502H94.3c-19.5,0-35.4-15.9-35.4-35.4V45.4C58.8,25.9,74.7,10,94.3,10h245.1v88.6c0,13.9,11.3,25.2,25.2,25.2h88.5v342.8C453.2,486.1,437.3,502,417.7,502z M454.2,123.8L454.2,123.8C454.3,124,454.2,124,454.2,123.8z"/><path fill="#333" d="M397.5 167.3h-283c-2.8 0-5 2.2-5 5s2.2 5 5 5h283.1c2.8 0 5-2.2 5-5S400.3 167.3 397.5 167.3zM397.5 251h-283c-2.8 0-5 2.2-5 5 0 2.8 2.2 5 5 5h283.1c2.8 0 5-2.2 5-5S400.3 251 397.5 251zM397.5 334.7h-283c-2.8 0-5 2.2-5 5s2.2 5 5 5h283.1c2.8 0 5-2.2 5-5S400.3 334.7 397.5 334.7zM227.5 418.3h-113c-2.8 0-5 2.2-5 5s2.2 5 5 5h113.1c2.8 0 5-2.2 5-5S230.3 418.3 227.5 418.3z"/></svg>