<?xml version="1.0" encoding="iso-8859-1"?>
<!-- Generator: Adobe Illustrator 20.1.0, SVG Export Plug-In . SVG Version: 6.00 Build 0)  -->
<svg xmlns="http://www.w3.org/2000/svg" xmlns:xlink="http://www.w3.org/1999/xlink" version="1.1" id="&#1057;&#1083;&#1086;&#1081;_1" x="0px" y="0px" viewBox="0 0 64 64" style="enable-background:new 0 0 64 64;" xml:space="preserve">
<linearGradient id="SVGID_1__44844" gradientUnits="userSpaceOnUse" x1="39.0007" y1="9.3335" x2="39.0007" y2="53.6718" spreadMethod="reflect">
	<stop offset="0" style="stop-color:#1A6DFF"/>
	<stop offset="1" style="stop-color:#C822FF"/>
</linearGradient>
<path style="fill:url(#SVGID_1__44844);" d="M56.437,29.202l-31.848-18.78c-1.061-0.627-2.331-0.551-3.315,0.196  c-1.052,0.799-1.506,2.16-1.155,3.469l4.703,17.563c0.062,0.229,0.062,0.471,0,0.699l-4.703,17.563  c-0.351,1.309,0.104,2.67,1.155,3.469C21.814,53.792,22.441,54,23.072,54c0.518,0,1.039-0.14,1.517-0.422l31.848-18.78  C57.416,34.221,58,33.175,58,32C58,30.825,57.416,29.779,56.437,29.202z M55.421,33.075l-31.848,18.78  c-0.492,0.292-0.894,0.084-1.09-0.066c-0.32-0.243-0.603-0.728-0.434-1.358L26.717,33H38v-2H26.717L22.05,13.569  c-0.169-0.631,0.113-1.115,0.434-1.358c0.195-0.149,0.597-0.357,1.09-0.066l31.848,18.78C55.784,31.139,56,31.541,56,32  S55.784,32.861,55.421,33.075z"/>
<linearGradient id="SVGID_2__44844" gradientUnits="userSpaceOnUse" x1="10" y1="9.3333" x2="10" y2="53.6717" spreadMethod="reflect">
	<stop offset="0" style="stop-color:#1A6DFF"/>
	<stop offset="1" style="stop-color:#C822FF"/>
</linearGradient>
<rect x="6" y="19" style="fill:url(#SVGID_2__44844);" width="8" height="2"/>
<linearGradient id="SVGID_3__44844" gradientUnits="userSpaceOnUse" x1="14" y1="9.3333" x2="14" y2="53.6717" spreadMethod="reflect">
	<stop offset="0" style="stop-color:#1A6DFF"/>
	<stop offset="1" style="stop-color:#C822FF"/>
</linearGradient>
<rect x="10" y="25" style="fill:url(#SVGID_3__44844);" width="8" height="2"/>
<linearGradient id="SVGID_4__44844" gradientUnits="userSpaceOnUse" x1="16" y1="9.3333" x2="16" y2="53.6717" spreadMethod="reflect">
	<stop offset="0" style="stop-color:#1A6DFF"/>
	<stop offset="1" style="stop-color:#C822FF"/>
</linearGradient>
<rect x="12" y="31" style="fill:url(#SVGID_4__44844);" width="8" height="2"/>
<linearGradient id="SVGID_5__44844" gradientUnits="userSpaceOnUse" x1="14" y1="9.3333" x2="14" y2="53.6717" spreadMethod="reflect">
	<stop offset="0" style="stop-color:#1A6DFF"/>
	<stop offset="1" style="stop-color:#C822FF"/>
</linearGradient>
<rect x="10" y="37" style="fill:url(#SVGID_5__44844);" width="8" height="2"/>
<linearGradient id="SVGID_6__44844" gradientUnits="userSpaceOnUse" x1="10" y1="9.3333" x2="10" y2="53.6717" spreadMethod="reflect">
	<stop offset="0" style="stop-color:#1A6DFF"/>
	<stop offset="1" style="stop-color:#C822FF"/>
</linearGradient>
<rect x="6" y="43" style="fill:url(#SVGID_6__44844);" width="8" height="2"/>
<linearGradient id="SVGID_7__44844" gradientUnits="userSpaceOnUse" x1="31.7871" y1="34.25" x2="31.7871" y2="44.4482" spreadMethod="reflect">
	<stop offset="0" style="stop-color:#6DC7FF"/>
	<stop offset="1" style="stop-color:#E6ABFF"/>
</linearGradient>
<path style="fill:url(#SVGID_7__44844);" d="M26.478,43.407l2.415-8.05C28.956,35.145,29.151,35,29.373,35h7.245  c0.468,0,0.68,0.586,0.321,0.885l-9.66,8.05C26.897,44.253,26.335,43.882,26.478,43.407z"/>
<linearGradient id="SVGID_8__44844" gradientUnits="userSpaceOnUse" x1="31.7871" y1="19.2501" x2="31.7871" y2="30.0065" spreadMethod="reflect">
	<stop offset="0" style="stop-color:#6DC7FF"/>
	<stop offset="1" style="stop-color:#E6ABFF"/>
</linearGradient>
<path style="fill:url(#SVGID_8__44844);" d="M26.478,20.594l2.415,8.05C28.956,28.855,29.151,29,29.373,29h7.245  c0.468,0,0.68-0.585,0.321-0.885l-9.66-8.05C26.897,19.748,26.335,20.118,26.478,20.594z"/>
</svg>
